{
  "accessors": [
    {
      "bufferView": 2,
      "componentType": 5126,
      "count": 793,
      "max": [
        1.3480900526046753,
        32.326740264892578,
        35.403968811035156
      ],
      "min": [
        -25.56226921081543,
        -20.495330810546875,
        -9.5361404418945312
      ],
      "type": "VEC3"
    },
    {
      "bufferView": 2,
      "byteOffset": 9516,
      "componentType": 5126,
      "count": 793,
      "max": [
        0.99995726346969604,
        1,
        0.99996429681777954
      ],
      "min": [
        -0.99995702505111694,
        -1,
        -0.99996370077133179
      ],
      "type": "VEC3"
    },
    {
      "bufferView": 3,
      "componentType": 5126,
      "count": 793,
      "max": [
        1,
        0.99518448114395142,
        0.11794003844261169,
        1
      ],
      "min": [
        -0.9999735951423645,
        -1,
        -0.021702032536268234,
        1
      ],
      "type": "VEC4"
    },
    {
      "bufferView": 1,
      "componentType": 5126,
      "count": 793,
      "max": [
        0.99296998977661133,
        1
      ],
      "min": [
        0,
        0
      ],
      "type": "VEC2"
    },
    {
      "bufferView": 0,
      "componentType": 5125,
      "count": 1224,
      "max": [
        792
      ],
      "min": [
        0
      ],
      "type": "SCALAR"
    }
  ],
  "asset": {
    "extras": {
      "author": "codyseibert (https://sketchfab.com/codyseibert)",
      "license": "CC-BY-4.0 (http://creativecommons.org/licenses/by/4.0/)",
      "source": "https://sketchfab.com/3d-models/laptop-9a960986f0cc49f99a0afdfb486ec859",
      "title": "Laptop"
    },
    "generator": "Sketchfab-6.44.0",
    "version": "2.0"
  },
  "bufferViews": [
    {
      "buffer": 0,
      "byteLength": 4896,
      "byteOffset": 0,
      "name": "floatBufferViews",
      "target": 34963
    },
    {
      "buffer": 0,
      "byteLength": 6344,
      "byteOffset": 4896,
      "byteStride": 8,
      "name": "floatBufferViews",
      "target": 34962
    },
    {
      "buffer": 0,
      "byteLength": 19032,
      "byteOffset": 11240,
      "byteStride": 12,
      "name": "floatBufferViews",
      "target": 34962
    },
    {
      "buffer": 0,
      "byteLength": 12688,
      "byteOffset": 30272,
      "byteStride": 16,
      "name": "floatBufferViews",
      "target": 34962
    }
  ],
  "buffers": [
    {
      "byteLength": 42960,
      "uri": "scene.bin"
    }
  ],
  "images": [
    {
      "uri": "textures/Material_baseColor.png"
    }
  ],
  "materials": [
    {
      "doubleSided": true,
      "emissiveFactor": [
        0,
        0,
        0
      ],
      "name": "Material",
      "pbrMetallicRoughness": {
        "baseColorFactor": [
          1,
          1,
          1,
          1
        ],
        "baseColorTexture": {
          "index": 0,
          "texCoord": 0
        },
        "metallicFactor": 0,
        "roughnessFactor": 0.59999999999999998
      }
    }
  ],
  "meshes": [
    {
      "name": "computer_0",
      "primitives": [
        {
          "attributes": {
            "NORMAL": 1,
            "POSITION": 0,
            "TANGENT": 2,
            "TEXCOORD_0": 3
          },
          "indices": 4,
          "material": 0,
          "mode": 4
        }
      ]
    }
  ],
  "nodes": [
    {
      "children": [
        1
      ],
      "name": "RootNode (gltf orientation matrix)",
      "rotation": [
        -0.70710678118654746,
        -0,
        -0,
        0.70710678118654757
      ]
    },
    {
      "children": [
        2
      ],
      "name": "RootNode (model correction matrix)"
    },
    {
      "children": [
        3,
        5
      ],
      "name": "Root"
    },
    {
      "children": [
        4
      ],
      "matrix": [
        0.00025000000000000011,
        0,
        -0.027180000000000006,
        0,
        -0,
        -0.027190000000000006,
        0,
        0,
        0.027180000000000006,
        0,
        0.00025000000000000011,
        0,
        -0.36287000000000008,
        0.56576000000000004,
        -0.00023000000000000006,
        1
      ],
      "name": "computer"
    },
    {
      "mesh": 0,
      "name": "computer_0"
    },
    {
      "children": [
        6
      ],
      "matrix": [
        1,
        0,
        0,
        0,
        0,
        1,
        0,
        0,
        0,
        0,
        1,
        0,
        -1.18279,
        0.38364000000000004,
        1.8696299999999999,
        1
      ],
      "name": "Hemi"
    },
    {
      "name": "Hemi"
    }
  ],
  "samplers": [
    {
      "magFilter": 9729,
      "minFilter": 9987,
      "wrapS": 10497,
      "wrapT": 10497
    }
  ],
  "scene": 0,
  "scenes": [
    {
      "name": "OSG_Scene",
      "nodes": [
        0
      ]
    }
  ],
  "textures": [
    {
      "sampler": 0,
      "source": 0
    }
  ]
}

