{
  "accessors": [
    {
      "bufferView": 2,
      "componentType": 5126,
      "count": 212,
      "max": [
        3.6429829597473145,
        3.4954829216003418,
        0.26835998892784119
      ],
      "min": [
        -3.4686410427093506,
        -2.9626469612121582,
        -0.17848099768161774
      ],
      "type": "VEC3"
    },
    {
      "bufferView": 2,
      "byteOffset": 2544,
      "componentType": 5126,
      "count": 212,
      "max": [
        0.98768872022628784,
        0.99589043855667114,
        1
      ],
      "min": [
        -0.95072770118713379,
        -0.99589043855667114,
        -1
      ],
      "type": "VEC3"
    },
    {
      "bufferView": 1,
      "componentType": 5126,
      "count": 212,
      "max": [
        0.77367997169494629,
        0.92586499452590942
      ],
      "min": [
        0.09889499843120575,
        0.68126797676086426
      ],
      "type": "VEC2"
    },
    {
      "bufferView": 0,
      "componentType": 5125,
      "count": 426,
      "max": [
        211
      ],
      "min": [
        0
      ],
      "type": "SCALAR"
    },
    {
      "bufferView": 2,
      "byteOffset": 5088,
      "componentType": 5126,
      "count": 69,
      "max": [
        0.65175199508666992,
        0.65175199508666992,
        0.20511400699615479
      ],
      "min": [
        -0.65175199508666992,
        -0.65175199508666992,
        0.16894200444221497
      ],
      "type": "VEC3"
    },
    {
      "bufferView": 2,
      "byteOffset": 5916,
      "componentType": 5126,
      "count": 69,
      "max": [
        0.75386708974838257,
        0.7538679838180542,
        1
      ],
      "min": [
        -0.75386708974838257,
        -0.75386708974838257,
        0.65702599287033081
      ],
      "type": "VEC3"
    },
    {
      "bufferView": 1,
      "byteOffset": 1696,
      "componentType": 5126,
      "count": 69,
      "max": [
        0.80005598068237305,
        0.92151802778244019
      ],
      "min": [
        0.59661698341369629,
        0.90774202346801758
      ],
      "type": "VEC2"
    },
    {
      "bufferView": 0,
      "byteOffset": 1704,
      "componentType": 5125,
      "count": 180,
      "max": [
        68
      ],
      "min": [
        0
      ],
      "type": "SCALAR"
    },
    {
      "bufferView": 2,
      "byteOffset": 6744,
      "componentType": 5126,
      "count": 96,
      "max": [
        0.7250329852104187,
        0.7250329852104187,
        0.21882599592208862
      ],
      "min": [
        -0.7250329852104187,
        -0.7250329852104187,
        0.16894200444221497
      ],
      "type": "VEC3"
    },
    {
      "bufferView": 2,
      "byteOffset": 7896,
      "componentType": 5126,
      "count": 96,
      "max": [
        0.8167838454246521,
        0.8167838454246521,
        0.99874186515808105
      ],
      "min": [
        -0.8167843222618103,
        -0.8167843222618103,
        0.57694309949874878
      ],
      "type": "VEC3"
    },
    {
      "bufferView": 1,
      "byteOffset": 2248,
      "componentType": 5126,
      "count": 96,
      "max": [
        0.67020100355148315,
        0.92550402879714966
      ],
      "min": [
        0.51286399364471436,
        0.76424098014831543
      ],
      "type": "VEC2"
    },
    {
      "bufferView": 0,
      "byteOffset": 2424,
      "componentType": 5125,
      "count": 240,
      "max": [
        95
      ],
      "min": [
        0
      ],
      "type": "SCALAR"
    },
    {
      "bufferView": 2,
      "byteOffset": 9048,
      "componentType": 5126,
      "count": 429,
      "max": [
        3.4024300575256348,
        3.4024319648742676,
        0.26835998892784119
      ],
      "min": [
        -3.4024310111999512,
        -3.4024300575256348,
        -0.17161600291728973
      ],
      "type": "VEC3"
    },
    {
      "bufferView": 2,
      "byteOffset": 14196,
      "componentType": 5126,
      "count": 429,
      "max": [
        1,
        1,
        1
      ],
      "min": [
        -1,
        -1,
        -1
      ],
      "type": "VEC3"
    },
    {
      "bufferView": 1,
      "byteOffset": 3016,
      "componentType": 5126,
      "count": 429,
      "max": [
        0.63366097211837769,
        0.92138397693634033
      ],
      "min": [
        0.0019920000340789557,
        0.68126797676086426
      ],
      "type": "VEC2"
    },
    {
      "bufferView": 0,
      "byteOffset": 3384,
      "componentType": 5125,
      "count": 1338,
      "max": [
        428
      ],
      "min": [
        0
      ],
      "type": "SCALAR"
    },
    {
      "bufferView": 2,
      "byteOffset": 19344,
      "componentType": 5126,
      "count": 280,
      "max": [
        3.3058419227600098,
        3.3188979625701904,
        0.95712500810623169
      ],
      "min": [
        -3.299015998840332,
        -3.3066880702972412,
        -0.035838998854160309
      ],
      "type": "VEC3"
    },
    {
      "bufferView": 2,
      "byteOffset": 22704,
      "componentType": 5126,
      "count": 280,
      "max": [
        1,
        1,
        1
      ],
      "min": [
        -1,
        -1,
        -1
      ],
      "type": "VEC3"
    },
    {
      "bufferView": 1,
      "byteOffset": 6448,
      "componentType": 5126,
      "count": 280,
      "max": [
        0.99800801277160645,
        0.99800801277160645
      ],
      "min": [
        0.0018139999592676759,
        0.0019359999569132924
      ],
      "type": "VEC2"
    },
    {
      "bufferView": 0,
      "byteOffset": 8736,
      "componentType": 5125,
      "count": 420,
      "max": [
        279
      ],
      "min": [
        0
      ],
      "type": "SCALAR"
    },
    {
      "bufferView": 2,
      "byteOffset": 26064,
      "componentType": 5126,
      "count": 784,
      "max": [
        2.9138131141662598,
        2.9067840576171875,
        1.7070260047912598
      ],
      "min": [
        -2.9069869518280029,
        -2.9146590232849121,
        0.9402499794960022
      ],
      "type": "VEC3"
    },
    {
      "bufferView": 2,
      "byteOffset": 35472,
      "componentType": 5126,
      "count": 784,
      "max": [
        0.99896210432052612,
        0.99896222352981567,
        0.90173453092575073
      ],
      "min": [
        -0.99896222352981567,
        -0.99811846017837524,
        -1
      ],
      "type": "VEC3"
    },
    {
      "bufferView": 1,
      "byteOffset": 8688,
      "componentType": 5126,
      "count": 784,
      "max": [
        0.96081900596618652,
        0.99800801277160645
      ],
      "min": [
        0.0018139999592676759,
        0.3003230094909668
      ],
      "type": "VEC2"
    },
    {
      "bufferView": 0,
      "byteOffset": 10416,
      "componentType": 5125,
      "count": 2130,
      "max": [
        783
      ],
      "min": [
        0
      ],
      "type": "SCALAR"
    }
  ],
  "asset": {
    "extras": {
      "author": "lewis-clegg14 (https://sketchfab.com/lewis-clegg14)",
      "license": "CC-BY-4.0 (http://creativecommons.org/licenses/by/4.0/)",
      "source": "https://sketchfab.com/3d-models/portal-device-65879a7541604124a5d46642f3438677",
      "title": "Portal device"
    },
    "generator": "Sketchfab-7.39.0",
    "version": "2.0"
  },
  "bufferViews": [
    {
      "buffer": 0,
      "byteLength": 18936,
      "byteOffset": 0,
      "name": "floatBufferViews",
      "target": 34963
    },
    {
      "buffer": 0,
      "byteLength": 14960,
      "byteOffset": 18936,
      "byteStride": 8,
      "name": "floatBufferViews",
      "target": 34962
    },
    {
      "buffer": 0,
      "byteLength": 44880,
      "byteOffset": 33896,
      "byteStride": 12,
      "name": "floatBufferViews",
      "target": 34962
    }
  ],
  "buffers": [
    {
      "byteLength": 78776,
      "uri": "scene.bin"
    }
  ],
  "materials": [
    {
      "doubleSided": true,
      "name": "lambert11SG",
      "pbrMetallicRoughness": {
        "baseColorFactor": [
          0.11932039175531531,
          0,
          0.85560518583510303,
          1
        ],
        "metallicFactor": 0,
        "roughnessFactor": 0.59999999999999998
      }
    },
    {
      "doubleSided": true,
      "name": "lambert12SG",
      "pbrMetallicRoughness": {
        "baseColorFactor": [
          0.25645920253868382,
          0.0050976150279848148,
          1,
          1
        ],
        "metallicFactor": 0,
        "roughnessFactor": 0.59999999999999998
      }
    },
    {
      "doubleSided": true,
      "name": "lambert7SG",
      "pbrMetallicRoughness": {
        "baseColorFactor": [
          0.090015850884717488,
          0.088384524212271526,
          0.088384524212271526,
          1
        ],
        "metallicFactor": 0,
        "roughnessFactor": 0.59999999999999998
      }
    },
    {
      "doubleSided": true,
      "name": "lambert8SG",
      "pbrMetallicRoughness": {
        "baseColorFactor": [
          0.044895049180010527,
          0.044895049180010527,
          0.044895049180010527,
          1
        ],
        "metallicFactor": 0,
        "roughnessFactor": 0.59999999999999998
      }
    },
    {
      "doubleSided": true,
      "name": "lambert9SG",
      "pbrMetallicRoughness": {
        "baseColorFactor": [
          0.19413198274092813,
          0.19413198274092813,
          0.19413198274092813,
          1
        ],
        "metallicFactor": 0.94683689024390238,
        "roughnessFactor": 0.59999999999999998
      }
    }
  ],
  "meshes": [
    {
      "primitives": [
        {
          "attributes": {
            "NORMAL": 1,
            "POSITION": 0,
            "TEXCOORD_0": 2
          },
          "indices": 3,
          "material": 2,
          "mode": 4
        }
      ]
    },
    {
      "primitives": [
        {
          "attributes": {
            "NORMAL": 5,
            "POSITION": 4,
            "TEXCOORD_0": 6
          },
          "indices": 7,
          "material": 0,
          "mode": 4
        }
      ]
    },
    {
      "primitives": [
        {
          "attributes": {
            "NORMAL": 9,
            "POSITION": 8,
            "TEXCOORD_0": 10
          },
          "indices": 11,
          "material": 1,
          "mode": 4
        }
      ]
    },
    {
      "primitives": [
        {
          "attributes": {
            "NORMAL": 13,
            "POSITION": 12,
            "TEXCOORD_0": 14
          },
          "indices": 15,
          "material": 2,
          "mode": 4
        }
      ]
    },
    {
      "primitives": [
        {
          "attributes": {
            "NORMAL": 17,
            "POSITION": 16,
            "TEXCOORD_0": 18
          },
          "indices": 19,
          "material": 3,
          "mode": 4
        }
      ]
    },
    {
      "primitives": [
        {
          "attributes": {
            "NORMAL": 21,
            "POSITION": 20,
            "TEXCOORD_0": 22
          },
          "indices": 23,
          "material": 4,
          "mode": 4
        }
      ]
    }
  ],
  "nodes": [
    {
      "children": [
        1
      ],
      "name": "RootNode (gltf orientation matrix)",
      "rotation": [
        -0.70710678118654746,
        -0,
        -0,
        0.70710678118654757
      ]
    },
    {
      "children": [
        2
      ],
      "name": "RootNode (model correction matrix)"
    },
    {
      "children": [
        3,
        4,
        5,
        6,
        7,
        8
      ],
      "name": "b8c5806458254bc0a68ac7b5091dcab0.obj.cleaner.materialmerger.gles"
    },
    {
      "mesh": 0,
      "name": ""
    },
    {
      "mesh": 1,
      "name": ""
    },
    {
      "mesh": 2,
      "name": ""
    },
    {
      "mesh": 3,
      "name": ""
    },
    {
      "mesh": 4,
      "name": ""
    },
    {
      "mesh": 5,
      "name": ""
    }
  ],
  "scene": 0,
  "scenes": [
    {
      "name": "OSG_Scene",
      "nodes": [
        0
      ]
    }
  ]
}

