{"asset":{"generator":"FBX2glTF v0.9.7","version":"2.0"},"scene":0,"buffers":[{"byteLength":99192,"uri":"data:application/octet-stream;base64,"}],"bufferViews":[{"buffer":0,"byteLength":9672,"byteOffset":0,"target":34963},{"buffer":0,"byteLength":15144,"byteOffset":9672,"target":34962},{"buffer":0,"byteLength":15144,"byteOffset":24816,"target":34962},{"buffer":0,"byteLength":1608,"byteOffset":39960,"target":34963},{"buffer":0,"byteLength":3168,"byteOffset":41568,"target":34962},{"buffer":0,"byteLength":3168,"byteOffset":44736,"target":34962},{"buffer":0,"byteLength":11832,"byteOffset":47904,"target":34963},{"buffer":0,"byteLength":19728,"byteOffset":59736,"target":34962},{"buffer":0,"byteLength":19728,"byteOffset":79464,"target":34962}],"scenes":[{"name":"Root Scene","nodes":[0]}],"accessors":[{"componentType":5123,"type":"SCALAR","count":4836,"bufferView":0,"byteOffset":0},{"componentType":5126,"type":"VEC3","count":1262,"bufferView":1,"byteOffset":0,"min":[-0.0964872241020203,-0.0965419784188271,0],"max":[0.0942310690879822,0.0946153923869133,0.0354626215994358]},{"componentType":5126,"type":"VEC3","count":1262,"bufferView":2,"byteOffset":0},{"componentType":5123,"type":"SCALAR","count":804,"bufferView":3,"byteOffset":0},{"componentType":5126,"type":"VEC3","count":264,"bufferView":4,"byteOffset":0,"min":[-0.0528545379638672,-0.0945852249860764,-0.0177313107997179],"max":[0.0528546907007694,0.0945852249860764,0.0177313107997179]},{"componentType":5126,"type":"VEC3","count":264,"bufferView":5,"byteOffset":0},{"componentType":5123,"type":"SCALAR","count":5916,"bufferView":6,"byteOffset":0},{"componentType":5126,"type":"VEC3","count":1644,"bufferView":7,"byteOffset":0,"min":[-0.113975636661053,-0.0945903584361076,-0.0177313107997179],"max":[0.113975673913956,0.0945903733372688,0.0177313107997179]},{"componentType":5126,"type":"VEC3","count":1644,"bufferView":8,"byteOffset":0}],"samplers":[{}],"materials":[{"name":"DefaultMaterial","alphaMode":"OPAQUE","extras":{"fromFBX":{"shadingModel":"Lambert","isTruePBR":false}},"pbrMetallicRoughness":{"baseColorFactor":[0.5,0.5,0.5,1],"metallicFactor":0.200000002980232,"roughnessFactor":0.800000011920929}}],"meshes":[{"name":"Shape1","primitives":[{"material":0,"mode":4,"attributes":{"NORMAL":2,"POSITION":1},"indices":0}]},{"name":"Object001","primitives":[{"material":0,"mode":4,"attributes":{"NORMAL":5,"POSITION":4},"indices":3}]},{"name":"Object002","primitives":[{"material":0,"mode":4,"attributes":{"NORMAL":8,"POSITION":7},"indices":6}]}],"nodes":[{"name":"RootNode","translation":[0,0,0],"rotation":[0,0,0,1],"scale":[1,1,1],"children":[1,2,3]},{"name":"Shape1","translation":[0,0,0],"rotation":[-0.70710676908493,0,0,0.70710676908493],"scale":[2.53999996185303,2.53999996185303,2.53999996185303],"mesh":0},{"name":"Object001","translation":[1.3891190290451,0.045037530362606,-0.00000377883884539187],"rotation":[-0.70710676908493,0,0,0.70710676908493],"scale":[2.53999996185303,2.53999996185303,2.53999996185303],"mesh":1},{"name":"Object002","translation":[-1.30308389663696,0.045037530362606,0.000010222243872704],"rotation":[-0.70710676908493,0,0,0.70710676908493],"scale":[2.53999996185303,2.53999996185303,2.53999996185303],"mesh":2}]}