{
    "asset": {
        "version": "2.0",
        "generator": "Open Asset Import Library (assimp v5.0.5eb040c7)"
    },
    "accessors": [
        {
            "bufferView": 0,
            "byteOffset": 0,
            "componentType": 5126,
            "count": 1262,
            "type": "VEC3",
            "max": [
                9.423107147216797,
                9.461539268493653,
                3.546262264251709
            ],
            "min": [
                -9.648722648620606,
                -9.654197692871094,
                0.0
            ]
        },
        {
            "bufferView": 1,
            "byteOffset": 0,
            "componentType": 5126,
            "count": 1262,
            "type": "VEC3",
            "max": [
                0.9822289943695068,
                0.9822289943695068,
                1.0
            ],
            "min": [
                -0.9817496538162231,
                -0.9814176559448242,
                -1.0
            ]
        },
        {
            "bufferView": 2,
            "byteOffset": 0,
            "componentType": 5125,
            "count": 4836,
            "type": "SCALAR",
            "max": [
                1261
            ],
            "min": [
                0
            ]
        },
        {
            "bufferView": 3,
            "byteOffset": 0,
            "componentType": 5126,
            "count": 264,
            "type": "VEC3",
            "max": [
                5.285469055175781,
                9.45852279663086,
                1.7731311321258546
            ],
            "min": [
                -5.285453796386719,
                -9.45852279663086,
                -1.7731311321258546
            ]
        },
        {
            "bufferView": 4,
            "byteOffset": 0,
            "componentType": 5126,
            "count": 264,
            "type": "VEC3",
            "max": [
                0.9863067865371704,
                0.9869892597198486,
                1.0
            ],
            "min": [
                -0.9863070845603943,
                -0.9863070845603943,
                -1.0
            ]
        },
        {
            "bufferView": 5,
            "byteOffset": 0,
            "componentType": 5125,
            "count": 804,
            "type": "SCALAR",
            "max": [
                263
            ],
            "min": [
                0
            ]
        },
        {
            "bufferView": 6,
            "byteOffset": 0,
            "componentType": 5126,
            "count": 1644,
            "type": "VEC3",
            "max": [
                11.397567749023438,
                9.459037780761719,
                1.7731311321258546
            ],
            "min": [
                -11.397563934326172,
                -9.459035873413086,
                -1.7731311321258546
            ]
        },
        {
            "bufferView": 7,
            "byteOffset": 0,
            "componentType": 5126,
            "count": 1644,
            "type": "VEC3",
            "max": [
                0.9819918870925903,
                0.9820762872695923,
                1.0
            ],
            "min": [
                -0.981981098651886,
                -0.982167661190033,
                -1.0
            ]
        },
        {
            "bufferView": 8,
            "byteOffset": 0,
            "componentType": 5125,
            "count": 5916,
            "type": "SCALAR",
            "max": [
                1643
            ],
            "min": [
                0
            ]
        }
    ],
    "buffers": [
        {
            "byteLength": 122304,
            "uri": "result.bin"
        }
    ],
    "bufferViews": [
        {
            "buffer": 0,
            "byteOffset": 0,
            "byteLength": 15144,
            "target": 34962
        },
        {
            "buffer": 0,
            "byteOffset": 15144,
            "byteLength": 15144,
            "target": 34962
        },
        {
            "buffer": 0,
            "byteOffset": 30288,
            "byteLength": 19344,
            "target": 34963
        },
        {
            "buffer": 0,
            "byteOffset": 49632,
            "byteLength": 3168,
            "target": 34962
        },
        {
            "buffer": 0,
            "byteOffset": 52800,
            "byteLength": 3168,
            "target": 34962
        },
        {
            "buffer": 0,
            "byteOffset": 55968,
            "byteLength": 3216,
            "target": 34963
        },
        {
            "buffer": 0,
            "byteOffset": 59184,
            "byteLength": 19728,
            "target": 34962
        },
        {
            "buffer": 0,
            "byteOffset": 78912,
            "byteLength": 19728,
            "target": 34962
        },
        {
            "buffer": 0,
            "byteOffset": 98640,
            "byteLength": 23664,
            "target": 34963
        }
    ],
    "materials": [
        {
            "name": "DefaultMaterial",
            "pbrMetallicRoughness": {
                "baseColorFactor": [
                    0.800000011920929,
                    0.800000011920929,
                    0.800000011920929,
                    1.0
                ],
                "metallicFactor": 0.0
            }
        }
    ],
    "meshes": [
        {
            "name": "Shape1",
            "primitives": [
                {
                    "mode": 4,
                    "material": 0,
                    "indices": 2,
                    "attributes": {
                        "POSITION": 0,
                        "NORMAL": 1
                    }
                }
            ]
        },
        {
            "name": "Object001",
            "primitives": [
                {
                    "mode": 4,
                    "material": 0,
                    "indices": 5,
                    "attributes": {
                        "POSITION": 3,
                        "NORMAL": 4
                    }
                }
            ]
        },
        {
            "name": "Object002",
            "primitives": [
                {
                    "mode": 4,
                    "material": 0,
                    "indices": 8,
                    "attributes": {
                        "POSITION": 6,
                        "NORMAL": 7
                    }
                }
            ]
        }
    ],
    "nodes": [
        {
            "name": "RootNode",
            "children": [
                1,
                3,
                6
            ]
        },
        {
            "name": "Shape1_$AssimpFbx$_PreRotation",
            "matrix": [
                1.0,
                0.0,
                0.0,
                0.0,
                0.0,
                -4.371138828673793e-8,
                -1.0,
                0.0,
                0.0,
                1.0,
                -4.371138828673793e-8,
                0.0,
                0.0,
                0.0,
                0.0,
                1.0
            ],
            "children": [
                2
            ]
        },
        {
            "name": "Shape1",
            "mesh": 0
        },
        {
            "name": "Object001_$AssimpFbx$_Translation",
            "matrix": [
                1.0,
                0.0,
                0.0,
                0.0,
                0.0,
                1.0,
                0.0,
                0.0,
                0.0,
                0.0,
                1.0,
                0.0,
                54.689727783203128,
                1.7731311321258546,
                -0.000148773193359375,
                1.0
            ],
            "children": [
                4
            ]
        },
        {
            "name": "Object001_$AssimpFbx$_PreRotation",
            "matrix": [
                1.0,
                0.0,
                0.0,
                0.0,
                0.0,
                -4.371138828673793e-8,
                -1.0,
                0.0,
                0.0,
                1.0,
                -4.371138828673793e-8,
                0.0,
                0.0,
                0.0,
                0.0,
                1.0
            ],
            "children": [
                5
            ]
        },
        {
            "name": "Object001",
            "mesh": 1
        },
        {
            "name": "Object002_$AssimpFbx$_Translation",
            "matrix": [
                1.0,
                0.0,
                0.0,
                0.0,
                0.0,
                1.0,
                0.0,
                0.0,
                0.0,
                0.0,
                1.0,
                0.0,
                -51.302520751953128,
                1.7731311321258546,
                0.0004024505615234375,
                1.0
            ],
            "children": [
                7
            ]
        },
        {
            "name": "Object002_$AssimpFbx$_PreRotation",
            "matrix": [
                1.0,
                0.0,
                0.0,
                0.0,
                0.0,
                -4.371138828673793e-8,
                -1.0,
                0.0,
                0.0,
                1.0,
                -4.371138828673793e-8,
                0.0,
                0.0,
                0.0,
                0.0,
                1.0
            ],
            "children": [
                8
            ]
        },
        {
            "name": "Object002",
            "mesh": 2
        }
    ],
    "scenes": [
        {
            "nodes": [
                0
            ]
        }
    ],
    "scene": 0
}